# xmcd
#
# Track frame offsets:
#	150
#	49257
#	69802
#	92970
#	108567
#	141065
#	162880
#	189632
#	248855
#	271350
#	297415
#
# Disc length: 4337 seconds
# Revision: 2
# Processed by: cddbd v1.5.2PL0 Copyright (c) Steve Scherf et al.
# Submitted via: dBpowerAMP V12.0
#
DISCID=a310ef0b
DTITLE=Various Artist - Sweet Little Angel
DYEAR=1983
DGENRE=Blues
TTITLE0=B.B. King Orchestra - B.B.'s Theme
TTITLE1=B.B. King - Why I Sing the Blues
TTITLE2=B.B. King - Darlin' You Know I Love You
TTITLE3=B.B. King - Caldonia
TTITLE4=B.B. King - All over Again
TTITLE5=B.B. King - Every Day I Have the Blues
TTITLE6=B.B. King - Sweet Little Angel
TTITLE7=B.B. King - Jamming With Brubeck
TTITLE8=B.B. King - The Thrill Is Gone
TTITLE9=B.B. King - Guess Who
TTITLE10=B.B. King - Payin' the Cost to Be the Boss
EXTD=
EXTT0=
EXTT1=
EXTT2=
EXTT3=
EXTT4=
EXTT5=
EXTT6=
EXTT7=
EXTT8=
EXTT9=
EXTT10=
PLAYORDER=
